<svg aria-hidden="true" style="position: absolute; width: 0; height: 0; overflow: hidden;" version="1.1" xmlns="http://www.w3.org/2000/svg" xmlns:xlink="http://www.w3.org/1999/xlink">
<defs>
<symbol id="icon-building" viewBox="0 0 36 32">
<path fill="#d1e7ff" style="fill: var(--color1, #d1e7ff)" d="M32.69 11.841v17.492c0 1.178-1.021 2.133-2.28 2.133h-25.084c-1.259 0-2.28-0.955-2.28-2.133 0-16.536-0.002-13.438 0.005-17.492h29.64z"></path>
<path fill="#b9dcff" style="fill: var(--color2, #b9dcff)" d="M32.69 11.841v4.040c0 0.874-0.749 1.598-1.684 1.602-0.010 0-26.259 0-26.278 0-0.934-0.004-1.683-0.728-1.683-1.602 0-1.166-0.001-0.361 0.005-4.040h29.64z"></path>
<path fill="#e8f3ff" style="fill: var(--color3, #e8f3ff)" d="M23.64 21.933v9.533h-11.544v-9.533c0-1.178 1.021-2.133 2.28-2.133h6.984c1.259 0 2.28 0.955 2.28 2.133z"></path>
<path fill="#b9dcff" style="fill: var(--color2, #b9dcff)" d="M34.401 11.841c0 2.134-1.85 3.867-4.133 3.867s-4.133-1.731-4.133-3.867c0 2.135-1.851 3.867-4.133 3.867s-4.133-1.731-4.133-3.867c0 2.135-1.851 3.867-4.133 3.867s-4.133-1.731-4.133-3.867c-0.004 2.121-1.87 3.867-4.133 3.867-2.26 0-4.13-1.743-4.133-3.867 0-3.361-0.010-3.154 0.025-3.308 0.034-0.151-0.203 0.385 3.383-7.357 0.181-0.39 0.592-0.643 1.046-0.643h24.158c0.454 0 0.865 0.253 1.046 0.643 3.588 7.748 3.349 7.206 3.383 7.357 0.035 0.154 0.025-0.056 0.025 3.308z"></path>
<path fill="#b9dcff" style="fill: var(--color2, #b9dcff)" d="M34.401 11.841c0 2.134-1.85 3.867-4.133 3.867s-4.133-1.731-4.133-3.867c0 2.135-1.851 3.867-4.133 3.867s-4.133-1.731-4.133-3.867c0 2.135-1.851 3.867-4.133 3.867s-4.133-1.731-4.133-3.867c-0.004 2.121-1.87 3.867-4.133 3.867-2.26 0-4.13-1.743-4.133-3.867-0.006-3.379-0.005-3.176 0.025-3.308h33.016c0.035 0.154 0.025-0.056 0.025 3.308z"></path>
<path fill="#fff" style="fill: var(--color4, #fff)" d="M29.639 3.383c-7.239-0.932-14.544 0.263-20.453 4.429-0.665 0.469-1.476 0.722-2.309 0.722h-5.517c0.034-0.151-0.203 0.385 3.383-7.357 0.181-0.39 0.592-0.643 1.046-0.643h24.158c0.454 0 0.865 0.252 1.046 0.642l0.159 0.343c0.445 0.961-0.404 2.007-1.513 1.865z"></path>
<path fill="#007ffc" style="fill: var(--color5, #007ffc)" d="M33.26 18.067v11.267c0 1.47-1.279 2.667-2.85 2.667h-25.084c-1.572 0-2.85-1.196-2.85-2.667v-11.267c0-0.294 0.255-0.533 0.57-0.533s0.57 0.239 0.57 0.533v11.267c0 0.882 0.767 1.6 1.71 1.6h6.2v-9c0-1.47 1.279-2.667 2.851-2.667h6.984c1.572 0 2.851 1.196 2.851 2.667v6.867c0 0.294-0.255 0.533-0.57 0.533s-0.57-0.239-0.57-0.533v-6.867c0-0.882-0.767-1.6-1.71-1.6h-6.984c-0.943 0-1.71 0.718-1.71 1.6v9h4.632v-8.4c0-0.294 0.255-0.533 0.57-0.533s0.57 0.239 0.57 0.533v8.4h11.972c0.943 0 1.71-0.718 1.71-1.6v-11.267c0-0.294 0.255-0.533 0.57-0.533s0.57 0.239 0.57 0.533zM4.471 8.533c0 0.295 0.255 0.533 0.57 0.533 31.018 0 29.48 0.052 29.707-0.111 0.118-0.085 0.196-0.208 0.217-0.349 0.032-0.214 0.236 0.313-3.747-8.286-0.090-0.195-0.296-0.321-0.523-0.321h-25.654c-0.227 0-0.433 0.126-0.523 0.321l-3.706 8c-0.066 0.141-0.047-0.083-0.047 3.521 0.004 2.426 2.114 4.399 4.703 4.399 1.78 0 3.333-0.933 4.132-2.304 1.783 3.066 6.481 3.069 8.268 0.002 1.785 3.065 6.481 3.066 8.266 0 0.798 1.37 2.351 2.302 4.133 2.302 2.593 0 4.703-1.974 4.703-4.4 0-0.294-0.255-0.533-0.57-0.533s-0.57 0.239-0.57 0.533c0 1.838-1.598 3.333-3.563 3.333s-3.563-1.495-3.563-3.333c0-0.294-0.255-0.533-0.57-0.533s-0.57 0.239-0.57 0.533c0 1.838-1.598 3.333-3.563 3.333s-3.563-1.495-3.563-3.333c0-0.294-0.255-0.533-0.57-0.533s-0.57 0.239-0.57 0.533c0 1.838-1.598 3.333-3.563 3.333-1.921 0-3.563-1.444-3.563-3.36 0-0.294-0.255-0.533-0.57-0.533s-0.57 0.239-0.57 0.533c0 1.9-1.632 3.36-3.563 3.36-1.962 0-3.56-1.496-3.563-3.333v-3.197l3.51-7.577h24.906l3.211 6.933h-28.491c-0.315 0-0.57 0.239-0.57 0.533z"></path>
</symbol>
<symbol id="icon-phone" viewBox="0 0 23 32">
<path fill="#d1e7ff" style="fill: var(--color1, #d1e7ff)" d="M19.383 0.533c1.258 0 2.279 0.955 2.279 2.132v26.649c0 1.177-1.021 2.132-2.279 2.132h-15.668c-1.258 0-2.279-0.955-2.279-2.132v-26.649c0-1.177 1.021-2.132 2.279-2.132h15.668z"></path>
<path fill="#b9dcff" style="fill: var(--color2, #b9dcff)" d="M15.132 11.974c0.546 0 1.003 0.384 1.062 0.891l0.762 6.548c0.069 0.591-0.426 1.107-1.062 1.107h-8.691c-0.636 0-1.131-0.516-1.062-1.107l0.762-6.548c0.059-0.507 0.516-0.891 1.062-0.891h7.167z"></path>
<path fill="#e8f3ff" style="fill: var(--color3, #e8f3ff)" d="M19.49 0.535c1.833 0.080 1.736 2.663-0.099 2.663h-7.415c-4.248 0-7.691 3.221-7.691 7.195v21.053h-0.57c-1.259 0-2.279-0.954-2.279-2.132v-26.649c0-1.177 1.020-2.132 2.279-2.132 0.103 0 15.692-0.001 15.775 0.002z"></path>
<path fill="#b9dcff" style="fill: var(--color2, #b9dcff)" d="M21.661 26.783v2.532c0 1.177-1.021 2.132-2.279 2.132h-15.668c-1.258 0-2.279-0.955-2.279-2.132v-2.532h20.225z"></path>
<path fill="#d1e7ff" style="fill: var(--color1, #d1e7ff)" d="M4.285 26.783v2.54c0 1.736-2.849 1.825-2.849-0.008v-2.532h2.849z"></path>
<path fill="#d1e7ff" style="fill: var(--color1, #d1e7ff)" d="M15.132 13.972c-3.451 0-6.272 2.43-6.636 5.561-0.065 0.561-0.572 0.986-1.176 0.986h-0.118c-0.636 0-1.131-0.516-1.062-1.107l0.762-6.548c0.059-0.507 0.516-0.891 1.062-0.891h7.167c0.545 0 1.003 0.384 1.062 0.891 0.069 0.593-0.427 1.108-1.062 1.108z"></path>
<path fill="#007ffc" style="fill: var(--color5, #007ffc)" d="M19.394 0h-15.678c-1.572 0-2.85 1.196-2.85 2.667v26.667c0 1.47 1.279 2.667 2.85 2.667h15.678c1.572 0 2.851-1.196 2.851-2.667v-26.667c0-1.47-1.279-2.667-2.851-2.667zM19.394 30.933h-15.678c-0.943 0-1.71-0.718-1.71-1.6v-26.667c0-0.882 0.767-1.6 1.71-1.6h15.678c0.943 0 1.71 0.718 1.71 1.6v23.6h-16.319c-0.315 0-0.57 0.239-0.57 0.533s0.255 0.533 0.57 0.533h16.319v2c0 0.882-0.767 1.6-1.71 1.6zM12.838 29c0 0.295-0.255 0.533-0.57 0.533h-1.425c-0.315 0-0.57-0.239-0.57-0.533s0.255-0.533 0.57-0.533h1.425c0.315 0 0.57 0.239 0.57 0.533zM7.207 21.067h8.697c0.975 0 1.735-0.793 1.629-1.699l-0.762-6.552c-0.091-0.779-0.791-1.367-1.629-1.367h-0.528v-0.987c-0-1.578-1.372-2.861-3.058-2.861s-3.058 1.283-3.058 2.861v0.987h-0.528c-0.838 0-1.539 0.588-1.629 1.367l-0.762 6.552c-0.106 0.907 0.655 1.699 1.629 1.699zM6.711 19.483l0.762-6.552c0.028-0.237 0.241-0.416 0.496-0.416h0.528v0.832c0 0.295 0.255 0.533 0.57 0.533s0.57-0.239 0.57-0.533v-2.886c0-0.989 0.86-1.794 1.918-1.794s1.918 0.805 1.918 1.794v0.987h-2.466c-0.315 0-0.57 0.239-0.57 0.533s0.255 0.533 0.57 0.533h2.466v0.832c0 0.295 0.255 0.533 0.57 0.533s0.57-0.239 0.57-0.533v-0.832h0.528c0.255 0 0.468 0.179 0.496 0.416l0.762 6.552c0.032 0.276-0.198 0.517-0.496 0.517h-8.697c-0.297 0-0.528-0.24-0.496-0.517z"></path>
</symbol>
<symbol id="icon-megaphone" viewBox="0 0 34 32">
<path fill="#d1e7ff" style="fill: var(--color1, #d1e7ff)" d="M28.782 14.73c0.67 1.085-0.133 2.448-1.472 2.496-4.888 0.179-9.871 1.321-14.569 3.569l-1.554 0.839c0 0.007-0.021-0.034 3.761 6.119 0.347 0.563 0.141 1.282-0.46 1.608l-1.225 0.662c-0.601 0.325-1.371 0.132-1.718-0.431l-3.772-6.113-0.612 0.331c-1.203 0.649-2.741 0.264-3.436-0.862l-2.829-4.584c-0.694-1.125-0.282-2.564 0.921-3.214l5.581-3.015c4.265-2.581 7.879-5.999 10.589-10.019 0.714-1.060 2.377-1.029 3.046 0.056l2.421 3.923c1.391-0.751 3.17-0.305 3.973 0.996s0.326 2.965-1.065 3.716l2.421 3.923z"></path>
<path fill="#d1e7ff" style="fill: var(--color1, #d1e7ff)" d="M27.426 7.091c0.803 1.301 0.326 2.965-1.065 3.716l-2.908-4.712c1.391-0.751 3.17-0.305 3.973 0.996z"></path>
<path fill="#e8f3ff" style="fill: var(--color3, #e8f3ff)" d="M21.032 2.171c0.334 0.542 0.313 1.214-0.057 1.735-2.982 4.204-6.98 8.002-11.868 10.961l-6.539 3.532c-0.449 0.243-0.804 0.579-1.053 0.968l-0.62-1.004c-0.694-1.125-0.282-2.564 0.921-3.214l5.581-3.014c4.265-2.581 7.879-5.999 10.589-10.019 0.714-1.060 2.377-1.029 3.046 0.056v0z"></path>
<path fill="#b9dcff" style="fill: var(--color2, #b9dcff)" d="M7.397 12.135l5.344 8.66c-1.071 0.578-4.512 2.436-5.581 3.015-1.203 0.649-2.741 0.264-3.436-0.862l-2.829-4.584c-0.694-1.125-0.282-2.564 0.921-3.214l5.581-3.015z"></path>
<path fill="#d1e7ff" style="fill: var(--color1, #d1e7ff)" d="M9.089 14.878c-7.101 3.835-6.631 3.568-6.86 3.735-0.431 0.314-1.061 0.194-1.335-0.249-0.694-1.125-0.282-2.564 0.921-3.214l5.581-3.014 1.693 2.743z"></path>
<path fill="#b9dcff" style="fill: var(--color2, #b9dcff)" d="M12.205 23.289c-1.987 1.076-0.525 0.284-3.412 1.843l-1.021-1.653 3.415-1.844 1.017 1.654z"></path>
<path fill="#b9dcff" style="fill: var(--color2, #b9dcff)" d="M27.252 10.059c-0.23 0.296-0.53 0.553-0.891 0.747l-2.908-4.712c0.361-0.195 0.749-0.309 1.137-0.348 0.146 0.237 2.534 4.106 2.662 4.313v0z"></path>
<path fill="#007ffc" style="fill: var(--color5, #007ffc)" d="M27.101 11.262c2.18-1.713 1.427-5.102-1.297-5.804-0.712-0.183-1.449-0.145-2.124 0.102l-2.164-3.607c-0.881-1.468-3.065-1.507-4.003-0.076-2.662 4.063-6.209 7.519-10.419 10.141-0.24 0.149-0.329 0.457-0.187 0.708 0.023 0.040 3.608 6.015 3.632 6.054 0.154 0.257 0.496 0.345 0.763 0.197s0.359-0.477 0.204-0.734l-3.362-5.603c4.015-2.583 7.571-6.002 10.314-10.189 0.491-0.749 1.631-0.726 2.090 0.040l7.75 12.917c0.46 0.766-0.091 1.727-1.009 1.762-5.15 0.193-10.192 1.46-14.802 3.729-0.020 0.010-5.246 2.914-5.606 3.114-0.934 0.519-2.133 0.21-2.672-0.689l-2.829-4.716c-0.539-0.899-0.218-2.053 0.716-2.572l3.405-1.892c0.267-0.148 0.359-0.477 0.204-0.734s-0.496-0.345-0.763-0.197l-3.405 1.892c-1.468 0.815-1.972 2.628-1.125 4.040l2.829 4.716c0.847 1.412 2.731 1.898 4.199 1.082l0.129-0.072 3.493 5.822c0.502 0.836 1.611 1.123 2.481 0.64l1.225-0.681c0.869-0.483 1.167-1.551 0.665-2.387l-2.476-4.126c-0.154-0.257-0.496-0.345-0.763-0.197s-0.359 0.477-0.204 0.734l2.476 4.126c0.193 0.322 0.079 0.733-0.256 0.919l-1.225 0.681c-0.335 0.186-0.762 0.076-0.955-0.246l-3.493-5.822 4.473-2.485c4.377-2.152 9.245-3.416 14.324-3.606 1.76-0.066 2.813-1.908 1.933-3.374l-2.165-3.608zM26.942 7.55c0.551 0.919 0.353 2.060-0.41 2.763l-2.282-3.804c1-0.282 2.132 0.107 2.692 1.041zM32.405 5.16l-1.445 0.803c-0.267 0.148-0.609 0.060-0.763-0.197s-0.063-0.586 0.204-0.734l1.445-0.803c0.267-0.148 0.609-0.060 0.763 0.197s0.063 0.586-0.204 0.734zM26.189 2.096l0.353-1.266c0.080-0.287 0.386-0.457 0.684-0.38s0.475 0.372 0.395 0.658l-0.352 1.266c-0.080 0.286-0.385 0.457-0.684 0.38-0.298-0.077-0.475-0.372-0.395-0.658v0zM33.495 10.899c-0.067 0.24-0.293 0.398-0.539 0.398-0.101 0-0.030 0.011-1.46-0.358-0.298-0.077-0.475-0.372-0.395-0.658s0.386-0.457 0.684-0.38l1.315 0.339c0.298 0.077 0.475 0.372 0.395 0.658z"></path>
</symbol>
<symbol id="icon-vector" viewBox="0 0 33 32">
<path d="M31.064 8.787c0-4.294-3.484-7.787-7.766-7.787-3.222 0-6.087 2.020-7.234 4.953-1.147-2.933-4.012-4.953-7.234-4.953-4.282 0-7.766 3.493-7.766 7.787 0 3.226 1.942 6.042 4.847 7.213-2.905 1.171-4.847 3.987-4.847 7.213 0 4.294 3.484 7.787 7.766 7.787 3.222 0 6.087-2.020 7.234-4.953 1.147 2.933 4.012 4.953 7.234 4.953 4.282 0 7.766-3.493 7.766-7.787 0-3.226-1.942-6.042-4.847-7.213 2.905-1.171 4.847-3.987 4.847-7.213zM24.89 15.635c-0.169 0.039-0.289 0.191-0.289 0.365s0.12 0.326 0.289 0.365c3.194 0.744 5.425 3.56 5.425 6.848 0 3.88-3.148 7.037-7.018 7.037-3.303 0-6.191-2.35-6.868-5.587-0.036-0.174-0.189-0.298-0.366-0.298s-0.33 0.125-0.366 0.298c-0.677 3.237-3.565 5.587-6.868 5.587-3.87 0-7.018-3.157-7.018-7.037 0-3.288 2.231-6.103 5.425-6.848 0.169-0.039 0.289-0.191 0.289-0.365s-0.12-0.326-0.289-0.365c-3.194-0.745-5.425-3.56-5.425-6.848 0-3.88 3.148-7.037 7.018-7.037 3.303 0 6.191 2.35 6.868 5.587 0.036 0.174 0.189 0.298 0.366 0.298s0.33-0.125 0.366-0.298c0.676-3.237 3.565-5.587 6.868-5.587 3.87 0 7.018 3.157 7.018 7.037 0 3.287-2.231 6.103-5.425 6.848z"></path>
<path stroke-linejoin="miter" stroke-linecap="butt" stroke-miterlimit="4" stroke-width="2" d="M31.064 8.787c0-4.294-3.484-7.787-7.766-7.787-3.222 0-6.087 2.020-7.234 4.953-1.147-2.933-4.012-4.953-7.234-4.953-4.282 0-7.766 3.493-7.766 7.787 0 3.226 1.942 6.042 4.847 7.213-2.905 1.171-4.847 3.987-4.847 7.213 0 4.294 3.484 7.787 7.766 7.787 3.222 0 6.087-2.020 7.234-4.953 1.147 2.933 4.012 4.953 7.234 4.953 4.282 0 7.766-3.493 7.766-7.787 0-3.226-1.942-6.042-4.847-7.213 2.905-1.171 4.847-3.987 4.847-7.213zM24.89 15.635c-0.169 0.039-0.289 0.191-0.289 0.365s0.12 0.326 0.289 0.365c3.194 0.744 5.425 3.56 5.425 6.848 0 3.88-3.148 7.037-7.018 7.037-3.303 0-6.191-2.35-6.868-5.587-0.036-0.174-0.189-0.298-0.366-0.298s-0.33 0.125-0.366 0.298c-0.677 3.237-3.565 5.587-6.868 5.587-3.87 0-7.018-3.157-7.018-7.037 0-3.288 2.231-6.103 5.425-6.848 0.169-0.039 0.289-0.191 0.289-0.365s-0.12-0.326-0.289-0.365c-3.194-0.745-5.425-3.56-5.425-6.848 0-3.88 3.148-7.037 7.018-7.037 3.303 0 6.191 2.35 6.868 5.587 0.036 0.174 0.189 0.298 0.366 0.298s0.33-0.125 0.366-0.298c0.676-3.237 3.565-5.587 6.868-5.587 3.87 0 7.018 3.157 7.018 7.037 0 3.287-2.231 6.103-5.425 6.848z"></path>
</symbol>
<symbol id="icon-twitter" viewBox="0 0 38 32">
<path d="M33.777 7.62c0.024 0.334 0.024 0.669 0.024 1.003 0 10.2-7.763 21.953-21.953 21.953-4.371 0-8.432-1.266-11.848-3.464 0.621 0.072 1.218 0.095 1.863 0.095 3.607 0 6.927-1.218 9.579-3.297-3.392-0.072-6.235-2.293-7.214-5.351 0.478 0.072 0.956 0.119 1.457 0.119 0.693 0 1.386-0.096 2.030-0.263-3.535-0.717-6.187-3.822-6.187-7.572v-0.096c1.027 0.573 2.222 0.932 3.488 0.979-2.078-1.386-3.44-3.75-3.44-6.426 0-1.433 0.382-2.747 1.051-3.894 3.798 4.682 9.507 7.74 15.909 8.074-0.119-0.573-0.191-1.17-0.191-1.768 0-4.252 3.44-7.716 7.716-7.716 2.222 0 4.228 0.932 5.637 2.437 1.744-0.334 3.416-0.979 4.897-1.863-0.573 1.792-1.792 3.297-3.392 4.252 1.553-0.167 3.058-0.597 4.443-1.194-1.051 1.529-2.365 2.89-3.87 3.989z"></path>
</symbol>
<symbol id="icon-dribbble" viewBox="0 0 32 32">
<path d="M15.5 0c-8.547 0-15.5 6.953-15.5 15.5s6.953 15.5 15.5 15.5c8.547 0 15.5-6.953 15.5-15.5s-6.953-15.5-15.5-15.5zM25.748 7.148c1.844 2.253 2.96 5.122 2.99 8.247-0.436-0.092-4.814-0.98-9.219-0.426-0.36-0.878-0.699-1.65-1.164-2.601 4.895-1.999 7.114-4.843 7.393-5.22zM24.276 5.617c-0.238 0.339-2.231 3.018-6.939 4.782-2.169-3.986-4.574-7.261-4.94-7.75 4.198-1.012 8.623 0.079 11.879 2.968zM9.871 3.539c0.349 0.479 2.715 3.757 4.909 7.657-6.193 1.645-11.648 1.621-12.24 1.613 0.859-4.108 3.627-7.523 7.331-9.27zM2.261 15.52c0-0.135 0.003-0.27 0.007-0.405 0.579 0.012 6.995 0.095 13.607-1.884 0.379 0.742 0.741 1.495 1.073 2.247-4.787 1.348-9.137 5.22-11.283 8.894-2.115-2.347-3.404-5.452-3.404-8.852zM7.374 25.965c1.383-2.827 5.136-6.476 10.474-8.297 1.859 4.83 2.628 8.878 2.824 10.040-4.257 1.813-9.376 1.316-13.298-1.743zM22.897 26.495c-0.136-0.805-0.84-4.681-2.572-9.44 4.149-0.664 7.794 0.423 8.247 0.566-0.59 3.684-2.705 6.865-5.675 8.874z"></path>
</symbol>
<symbol id="icon-github" viewBox="0 0 32 32">
<path d="M10.703 25.123c0 0.129-0.148 0.232-0.335 0.232-0.213 0.019-0.361-0.084-0.361-0.232 0-0.129 0.148-0.232 0.335-0.232 0.194-0.019 0.361 0.084 0.361 0.232zM8.697 24.832c-0.045 0.129 0.084 0.277 0.277 0.316 0.168 0.065 0.361 0 0.4-0.129s-0.084-0.277-0.277-0.336c-0.168-0.045-0.355 0.019-0.4 0.148zM11.548 24.723c-0.187 0.045-0.316 0.168-0.297 0.316 0.019 0.129 0.187 0.213 0.381 0.168 0.187-0.045 0.316-0.168 0.297-0.297-0.019-0.123-0.194-0.206-0.381-0.187zM15.794 0c-8.948 0-15.794 6.794-15.794 15.742 0 7.155 4.503 13.277 10.935 15.432 0.826 0.148 1.116-0.361 1.116-0.781 0-0.4-0.019-2.607-0.019-3.961 0 0-4.516 0.968-5.465-1.923 0 0-0.736-1.877-1.794-2.361 0 0-1.477-1.013 0.103-0.993 0 0 1.606 0.129 2.49 1.664 1.413 2.49 3.781 1.774 4.703 1.348 0.148-1.032 0.568-1.748 1.032-2.174-3.606-0.4-7.245-0.923-7.245-7.129 0-1.774 0.49-2.665 1.523-3.8-0.168-0.419-0.716-2.148 0.168-4.381 1.348-0.419 4.452 1.742 4.452 1.742 1.29-0.361 2.677-0.548 4.052-0.548s2.761 0.187 4.052 0.548c0 0 3.103-2.168 4.452-1.742 0.884 2.239 0.336 3.961 0.168 4.381 1.032 1.142 1.664 2.032 1.664 3.8 0 6.226-3.8 6.723-7.406 7.129 0.594 0.51 1.097 1.477 1.097 2.993 0 2.174-0.019 4.865-0.019 5.394 0 0.419 0.297 0.929 1.116 0.781 6.452-2.142 10.826-8.264 10.826-15.419 0-8.948-7.258-15.742-16.206-15.742zM6.271 22.252c-0.084 0.064-0.064 0.213 0.045 0.335 0.103 0.103 0.252 0.148 0.335 0.065 0.084-0.065 0.064-0.213-0.045-0.336-0.103-0.103-0.252-0.148-0.335-0.064zM5.574 21.729c-0.045 0.084 0.019 0.187 0.148 0.252 0.103 0.064 0.232 0.045 0.277-0.045 0.045-0.084-0.019-0.187-0.148-0.252-0.129-0.039-0.232-0.019-0.277 0.045zM7.665 24.026c-0.103 0.084-0.064 0.277 0.084 0.4 0.148 0.148 0.336 0.168 0.419 0.065 0.084-0.084 0.045-0.277-0.084-0.4-0.142-0.148-0.335-0.168-0.419-0.065zM6.929 23.077c-0.103 0.064-0.103 0.232 0 0.381s0.277 0.213 0.361 0.148c0.103-0.084 0.103-0.252 0-0.4-0.090-0.148-0.258-0.213-0.361-0.129z"></path>
</symbol>
<symbol id="icon-facebook" viewBox="0 0 17 32">
<path d="M15.738 17.688l0.873-5.691h-5.461v-3.693c0-1.557 0.763-3.075 3.209-3.075h2.483v-4.845c0 0-2.253-0.384-4.407-0.384-4.497 0-7.436 2.726-7.436 7.66v4.337h-4.999v5.691h4.999v13.758h6.152v-13.758h4.587z"></path>
</symbol>
<symbol id="icon-instagram" viewBox="0 0 32 32">
<path d="M15.25 7.427c-4.327 0-7.816 3.49-7.816 7.816s3.49 7.816 7.816 7.816 7.816-3.49 7.816-7.816c0-4.326-3.49-7.816-7.816-7.816zM15.25 20.325c-2.796 0-5.082-2.279-5.082-5.082s2.279-5.082 5.082-5.082 5.082 2.279 5.082 5.082c0 2.803-2.286 5.082-5.082 5.082zM25.209 7.107c0 1.014-0.816 1.823-1.823 1.823-1.014 0-1.823-0.816-1.823-1.823s0.816-1.823 1.823-1.823c1.007 0 1.823 0.816 1.823 1.823zM30.386 8.957c-0.116-2.442-0.673-4.605-2.463-6.388-1.782-1.782-3.945-2.34-6.388-2.463-2.517-0.143-10.061-0.143-12.578 0-2.435 0.116-4.599 0.673-6.388 2.456s-2.34 3.946-2.463 6.388c-0.143 2.517-0.143 10.061 0 12.578 0.116 2.442 0.673 4.606 2.463 6.388s3.946 2.34 6.388 2.463c2.517 0.143 10.061 0.143 12.578 0 2.442-0.116 4.605-0.674 6.388-2.463 1.782-1.782 2.34-3.946 2.463-6.388 0.143-2.517 0.143-10.054 0-12.571zM27.134 24.23c-0.531 1.333-1.558 2.361-2.898 2.898-2.007 0.796-6.769 0.612-8.986 0.612s-6.986 0.177-8.986-0.612c-1.333-0.531-2.361-1.558-2.898-2.898-0.796-2.007-0.612-6.769-0.612-8.986s-0.177-6.986 0.612-8.986c0.531-1.333 1.558-2.361 2.898-2.898 2.007-0.796 6.769-0.612 8.986-0.612s6.986-0.177 8.986 0.612c1.333 0.531 2.361 1.558 2.898 2.898 0.796 2.007 0.612 6.769 0.612 8.986s0.184 6.986-0.612 8.986z"></path>
</symbol>
</defs>
</svg>




